<?xml version="1.0" encoding="UTF-8"?>
<svg width="42px" height="40px" viewBox="0 0 42 40" version="1.1" xmlns="http://www.w3.org/2000/svg"
     xmlns:xlink="http://www.w3.org/1999/xlink">
    <!-- Generator: Sketch 63.1 (92452) - https://sketch.com -->
    <title>事项步骤</title>
    <desc>Created with Sketch.</desc>
    <g id="设计" stroke="none" stroke-width="1" fill="none" fill-rule="evenodd">
        <g id="1-1收件流程" transform="translate(-558.000000, -167.000000)" fill-rule="nonzero">
            <g id="事项步骤" transform="translate(554.000000, 163.000000)">
                <rect id="矩形" fill="#000000" opacity="0" x="0" y="0" width="48" height="48"></rect>
                <path d="M11.5558373,11.4531165 L34.1622602,11.4531165 L34.1622602,13.930543 L11.5558373,13.930543 L11.5558373,11.4531165 Z M42.905051,35.3662097 C43.0509911,35.2007498 43.1859159,34.9936157 43.3097773,34.7527046 C43.4336388,34.5131731 43.3955905,34.2945262 43.2019337,34.1026156 L42.8516102,33.7399645 C42.6682472,33.5479111 42.5494364,33.4417751 42.5009981,33.414468 C42.2524575,33.2495314 42.0208005,33.2227477 41.8000626,33.345344 C41.5786031,33.4623743 41.3575765,33.6331624 41.1368867,33.8518093 C40.5701063,34.4064662 40.0151107,34.9451385 39.4598266,35.4782448 C38.9101223,36.0061655 38.3871624,36.5130113 37.8962862,36.9931209 C37.7239384,37.1634808 37.5296082,37.2650974 37.3248881,37.3020143 C37.1145401,37.3336981 36.9471948,37.2703305 36.8233333,37.0992094 L36.4780124,36.7422194 C36.3166799,36.5710507 36.1490941,36.3901295 35.9767463,36.1985519 L35.4808195,35.638091 C35.3188616,35.4567417 35.2060154,35.3285317 35.1298226,35.2599785 C34.984556,35.1370967 34.8173069,35.0621212 34.6342325,35.0250616 C34.4509175,34.9873836 34.2565873,35.0515124 34.0629305,35.2226335 L33.8795193,35.3875701 C33.777015,35.4673029 33.6801385,35.563401 33.5826367,35.6757691 C33.4858083,35.7824284 33.3889799,35.8781934 33.2864755,35.9633972 L33.1031606,36.1232434 C32.7364345,36.5129638 32.7848727,36.9553953 33.2541032,37.46148 C33.3993217,37.6326487 33.5937,37.8410672 33.841471,38.0966309 C34.0842395,38.3468188 34.3430739,38.6188429 34.6121538,38.907137 C34.887006,39.1948127 35.1567594,39.4776834 35.4266572,39.7552736 C35.6957852,40.0320074 35.92826,40.2560775 36.1275927,40.4218229 C36.3216343,40.6186336 36.5914839,40.7042179 36.9364201,40.6936091 C37.2813562,40.6831905 37.5405273,40.5816215 37.7074877,40.3893779 C38.0520389,40.0748233 38.4465196,39.6963302 38.888669,39.2483326 C39.3300968,38.8057108 39.7942766,38.3522898 40.2685096,37.893826 C40.7480338,37.440738 41.2172162,36.9872694 41.6703808,36.5393669 C42.1235935,36.0968402 42.5387097,35.7019819 42.905051,35.3662097 L42.905051,35.3662097 Z M37.8959014,28.1088097 C39.0016114,28.1088097 40.0421919,28.3164671 41.0236075,28.7379664 C42.0100739,29.1594181 42.867628,29.7347694 43.60666,30.4549814 C44.3392945,31.1751458 44.9270472,32.0230921 45.3531787,32.9826928 C45.7850343,33.9477169 46,34.9713989 46,36.0542145 C46,37.1634332 45.7849861,38.1981998 45.3531787,39.1581812 C44.9270953,40.122682 44.3393426,40.9653476 43.60666,41.6910305 C42.867628,42.4106716 42.0100739,42.9754141 41.0236075,43.3864949 C40.0421919,43.7977659 39.0016114,44 37.8959014,44 C36.763928,44 35.7069448,43.7977659 34.7258178,43.3864949 C33.7447389,42.9754141 32.8817974,42.4106716 32.1488742,41.6910305 C31.4098423,40.9653476 30.8281023,40.122682 30.3962948,39.1581812 C29.9644392,38.1981998 29.7490886,37.1634332 29.7490886,36.0542145 C29.7490886,34.9713513 29.9644873,33.9477169 30.3962948,32.9826928 C30.8281023,32.0230921 31.4097942,31.1751458 32.1488742,30.4549814 C32.8817974,29.7347694 33.7447389,29.1594657 34.7258178,28.7379664 C35.7069448,28.316467 36.7638799,28.1088097 37.8959014,28.1088097 Z M11.5558373,16.4285211 L34.1622602,16.4285211 L34.1622602,18.9055671 L11.5558373,18.9055671 L11.5558373,16.4285211 L11.5558373,16.4285211 Z M9.03045857,8.9554714 L11.6779671,8.9554714 L33.1441912,8.9554714 L36.6877351,8.9554714 L36.6877351,21.4036403 L9.03045857,21.4036403 L9.03045857,8.9554714 Z M4,38.9884397 C4,40.2569814 5.16083433,41.2847072 6.52537873,41.2847072 L29.6707313,41.2847072 C28.6864777,39.7772524 28.1144061,37.9818366 28.1144061,36.0544049 C28.1144061,30.7241035 32.4849116,26.401452 37.8742077,26.401452 C39.2394255,26.401452 40.5385036,26.6792324 41.7181938,27.1796558 L41.7181938,21.4036403 L39.1924302,21.4036403 L39.1924302,6.47804495 L39.1924302,4 L6.52537873,4 L6.52537873,6.47804495 L6.52537873,21.4035928 L4,21.4035928 L4,38.9884397 L4,38.9884397 Z"
                      id="形状" fill="#FFFFFF"></path>
            </g>
        </g>
    </g>
</svg>
