<?xml version="1.0" encoding="UTF-8"?>
<svg width="20px" height="20px" viewBox="0 0 20 20" version="1.1" xmlns="http://www.w3.org/2000/svg"
     xmlns:xlink="http://www.w3.org/1999/xlink">
    <!-- Generator: Sketch 63.1 (92452) - https://sketch.com -->
    <title>法律法规</title>
    <desc>Created with Sketch.</desc>
    <g id="设计" stroke="none" stroke-width="1" fill="none" fill-rule="evenodd">
        <g id="1-3-1申请表信息" transform="translate(-1121.000000, -310.000000)" fill-rule="nonzero">
            <g id="编组备份-7" transform="translate(1115.000000, 304.000000)">
                <g id="法律法规" transform="translate(6.000000, 6.000000)">
                    <rect id="矩形" fill="#000000" opacity="0" x="0" y="0" width="20" height="20"></rect>
                    <path d="M11.3801473,12.981679 C11.3801473,13.145818 11.4446289,13.301681 11.5618683,13.4165094 L12.8170193,14.6578967 C13.2728735,15.1096237 14.0714806,15.1116927 14.5297486,14.6578967 L18.6469197,10.586836 C18.8733177,10.3628135 19.0004968,10.0574028 19.0000184,9.73889947 C19.0000184,9.41993191 18.8720882,9.11475753 18.6455404,8.89165265 L17.3903894,7.6495757 C17.1967763,7.45387435 16.8965478,7.41102383 16.6559192,7.54474742 L11.3622165,2.3091965 C11.4104916,2.21954075 11.4370428,2.11885046 11.4370428,2.01574633 C11.4370428,1.84953837 11.3722164,1.69436495 11.2539425,1.57988146 L9.99844673,0.339183827 C9.53983388,-0.114267373 8.74329575,-0.111853568 8.28640702,0.339183827 L4.16992563,4.41093417 C3.94253233,4.6340292 3.81452119,4.93927459 3.81475927,5.25783616 C3.81475927,5.57714857 3.94268812,5.88266776 4.16992563,6.105083 L5.42507658,7.34647029 C5.6112803,7.52543695 5.88541354,7.57509244 6.1216164,7.47302284 L7.62262525,8.95648065 L0.268612962,16.2323895 C0.0968265958,16.4004704 0,16.6306747 0,16.8710143 C0,17.1113539 0.0968265958,17.3415583 0.268612962,17.5096391 L1.50652285,18.7351643 C1.86409698,19.0891581 2.44018422,19.0886964 2.79719045,18.7341298 L10.1522372,11.4578761 L11.4349739,12.7275394 C11.3987442,12.8073731 11.3799364,12.8940089 11.3798024,12.981679 L11.3801473,12.981679 Z M6.84643162,6.78405288 L10.7536062,2.97264904 L16.132135,8.3161317 L12.152203,12.1092596 L10.1074104,10.1178674 L2.24892395,17.7275716 C2.06789255,17.9027451 1.7282432,17.5686051 1.54790144,17.3906729 C1.45893745,17.3048102 1.17032168,17.0982572 1.16997688,16.9748081 C1.16997688,16.8492901 1.21928639,16.7334272 1.30928483,16.6444612 L9.0601869,9.07061931 L6.84643162,6.78543221 L6.84643162,6.78439771 L6.84643162,6.78405288 Z M12.5821957,12.7723673 L16.8921221,8.59923698 C16.961776,8.53027103 17.0724638,8.53027103 17.1421178,8.59923698 L18.2393404,9.75096854 C18.2728502,9.78378881 18.2917349,9.82871897 18.2917349,9.8756245 C18.2917349,9.92253004 18.2728502,9.9674602 18.2393404,10.0002805 L13.912173,14.1903074 C13.8419629,14.256779 13.7320425,14.256779 13.6618324,14.1903074 L12.5825405,13.0213344 C12.5494051,12.9885285 12.5308172,12.9438243 12.5308172,12.8971957 C12.531032,12.8503138 12.549599,12.8053806 12.5825405,12.7720225 L12.5821957,12.7723673 Z M10.2987864,2.16402315 L5.98196363,6.37060194 C5.91237783,6.43663467 5.8032778,6.43663467 5.733692,6.37060194 L4.73370908,5.35162987 C4.70052321,5.3185659 4.68186924,5.27364783 4.68186924,5.22680148 C4.68186924,5.17995513 4.70052321,5.13503707 4.73370908,5.10197309 L9.04018724,0.932291081 C9.10916904,0.863779055 9.22051152,0.863779055 9.28949332,0.932291081 L10.2998209,1.91609052 C10.3317578,1.94912937 10.3496747,1.99324307 10.34982,2.03919477 C10.2987864,1.94884936 10.3315445,2.13126432 10.2987864,2.16402315 Z M10.2677525,16.9999807 C8.83329422,16.9999807 7.66676243,18.0737807 7.66676243,19.3920651 L7.66676243,20 L20,20 L20,19.3920651 C19.9989655,18.0737807 18.8331234,17.0003255 17.3979755,17.0003255 L10.2677525,16.9999807 Z M8.7726056,18.9999936 C9.01570491,18.3748171 9.53810977,17.996194 10.0001708,17.9999871 L17.6372817,17.9999871 C18.112446,17.9999871 18.7586419,18.3875758 18.9941551,18.9999936 L8.7726056,18.9999936 Z"
                          id="形状" fill="#FFFFFF"></path>
                </g>
            </g>
        </g>
    </g>
</svg>
