<?xml version="1.0" encoding="UTF-8"?>
<svg width="26px" height="26px" viewBox="0 0 26 26" version="1.1" xmlns="http://www.w3.org/2000/svg" xmlns:xlink="http://www.w3.org/1999/xlink">
    <!-- Generator: Sketch 63.1 (92452) - https://sketch.com -->
    <title>icon4</title>
    <desc>Created with Sketch.</desc>
    <g id="设计" stroke="none" stroke-width="1" fill="none" fill-rule="evenodd">
        <g id="0-2确认票号信息" transform="translate(-354.000000, -671.000000)" fill-rule="nonzero">
            <g id="icon4" transform="translate(353.000000, 670.000000)">
                <rect id="矩形" fill="#000000" opacity="0" x="0" y="0" width="28" height="28"></rect>
                <g id="编组-4" transform="translate(1.000000, 1.000000)" fill="#FFFFFF">
                    <path d="M25.4222482,11.1580613 C25.5092292,11.0074726 25.5071885,10.823553 25.4169625,10.6748106 L19.0858812,0.240494104 C18.9947852,0.0903588963 18.828986,-0.00150379222 18.6482997,-3.73034936e-14 C18.4684831,0.00186494244 18.3038548,0.0959950315 18.2161043,0.24797658 C18.2108855,0.256819508 17.6806023,1.14532198 16.3566173,2.15921245 C15.1321586,3.09685304 12.9582016,4.33709624 9.55466749,4.92089061 C4.23303444,5.83368681 2.01993603,8.33574605 0.831005751,9.6799664 C0.71180829,9.81478036 0.599134415,9.94211187 0.497901867,10.0512069 C0.351807201,10.2086626 0.327787051,10.4395502 0.438520573,10.6220446 L1.73741492,12.7627428 C1.62025818,12.7728166 1.50624611,12.8220843 1.41872982,12.9110317 C1.38427196,12.946047 0.569661188,13.7740096 0.128533549,14.2493892 C-0.0175611159,14.4068125 -0.0415812659,14.6377001 0.0691522552,14.8201945 L6.40020013,25.254511 C6.4812932,25.3881589 6.62333991,25.4763289 6.78258211,25.4918445 C6.79940959,25.4934641 6.81623707,25.4942739 6.83296419,25.4942739 C6.9745091,25.4942739 7.11050057,25.4362281 7.20617971,25.3331255 C7.38820423,25.1369294 7.60077249,24.8698928 7.86987841,24.5318537 C8.57318691,23.6483072 9.6360616,22.3130593 11.0962389,21.1206909 C12.8189985,19.7138899 14.7024722,18.8369189 16.6943043,18.5141039 C19.3798101,18.0788576 21.4622362,17.2910607 22.7362406,16.7068452 C24.1294425,16.0679202 24.8822633,15.5319683 24.9136768,15.5094237 C25.1259774,15.3571183 25.1799057,15.0714888 25.0370226,14.8562789 L23.785466,12.9714746 C24.931508,11.994057 25.4007371,11.1952793 25.4222482,11.1580613 Z M1.59329409,10.3120567 C2.17078121,9.65917095 2.96163945,8.76499997 4.22376761,7.92919868 C5.72081144,6.93785278 7.57327313,6.24761948 9.72970005,5.87773945 C11.3344665,5.60247536 12.8215076,5.16512356 14.1495406,4.57779848 C15.2186043,4.10501023 16.1880079,3.53433444 17.0308206,2.88164305 C17.7694233,2.30963922 18.2826783,1.77339575 18.6122695,1.3783798 L24.393731,10.906929 C24.1527936,11.2349267 23.6148494,11.883472 22.6876316,12.5934965 C21.4632064,13.5311371 19.289216,14.7713803 15.8856819,15.3552071 C10.7363047,16.2384621 8.49737966,18.6098859 7.28068237,19.9803111 L1.48717724,10.4319057 C1.52196964,10.3927119 1.55733078,10.3527082 1.59329409,10.3120567 Z M22.3065878,15.8286432 C21.0901582,16.3864919 19.1002999,17.1389495 16.528572,17.5557326 C14.3568231,17.9076677 12.3113973,18.857196 10.449167,20.3778536 C8.90675921,21.6373698 7.80437505,23.0222416 7.07490531,23.9386657 C7.01425278,24.0148832 6.95560749,24.0885418 6.89933746,24.1587992 L1.12185692,14.6367607 C1.56338599,14.1728153 2.1383306,13.5884703 2.14525561,13.5814089 C2.16452524,13.5618444 2.18118547,13.540887 2.19644059,13.5192494 L6.76960189,21.0562963 C6.85069496,21.1899442 6.99274167,21.2781142 7.15198387,21.2936298 C7.16881135,21.2952818 7.18560539,21.2960592 7.20233251,21.2960592 C7.34391086,21.2960592 7.47990236,21.2380134 7.57558147,21.1349108 C7.68480957,21.0171672 7.80123031,20.8855924 7.92447574,20.7462436 C8.50196286,20.0933579 9.2928211,19.1991869 10.5549827,18.363418 C12.0519596,17.3721045 13.9044213,16.6819036 16.0608148,16.3119911 C17.6655813,16.0367594 19.1526223,15.5993752 20.4806553,15.0120502 C21.3998775,14.6055352 22.2451324,14.126463 22.9998601,13.5852959 L23.9258066,14.9797557 C23.5916322,15.1825273 23.0468298,15.4891789 22.3065878,15.8286432 Z" id="Shape"></path>
                    <path d="M11.357918,8.74135406 C11.3958886,8.74135406 11.4344947,8.73714314 11.473034,8.72839742 C13.970159,8.1606369 15.944093,7.21363514 17.873466,5.65776786 C18.0864022,5.48602744 18.1153067,5.17966738 17.9379323,4.97349464 C17.7605245,4.76725711 17.4440808,4.73940031 17.231178,4.91110835 C15.4277602,6.36539545 13.581153,7.25095031 11.2436048,7.78239979 C10.9737964,7.84374954 10.8064248,8.10524719 10.8697872,8.36648569 C10.9241168,8.59034426 11.1302619,8.74135406 11.357918,8.74135406 Z" id="Shape"></path>
                    <path d="M7.78289742,16.7774265 C8.4241483,15.9751829 9.4472459,15.200699 10.6636756,14.5966922 C11.8328344,14.0161046 13.0833205,13.6494637 14.0944749,13.5907377 C14.3711415,13.5747038 14.5819367,13.3444965 14.5653433,13.0766501 C14.54875,12.8088037 14.3104555,12.6049955 14.0344246,12.6207379 C12.8726926,12.6882096 11.5129784,13.0828369 10.205687,13.7319976 C8.86102728,14.3997187 7.71869875,15.2700495 6.98919556,16.1826513 C6.81958258,16.3948489 6.85972765,16.7000429 7.07891983,16.8642684 C7.17031683,16.9327443 7.27840748,16.9659458 7.38569523,16.9659458 C7.53563712,16.9659458 7.68400668,16.9011625 7.78289742,16.7774265 Z" id="Shape"></path>
                </g>
            </g>
        </g>
    </g>
</svg>