<?xml version="1.0" encoding="UTF-8"?>
<svg width="26px" height="26px" viewBox="0 0 26 26" version="1.1" xmlns="http://www.w3.org/2000/svg" xmlns:xlink="http://www.w3.org/1999/xlink">
    <!-- Generator: Sketch 63.1 (92452) - https://sketch.com -->
    <title>icon1</title>
    <desc>Created with Sketch.</desc>
    <g id="设计" stroke="none" stroke-width="1" fill="none" fill-rule="evenodd">
        <g id="0-2确认票号信息" transform="translate(-354.000000, -371.000000)" fill-rule="nonzero">
            <g id="icon1" transform="translate(353.000000, 370.000000)">
                <rect id="矩形" fill="#000000" opacity="0" x="0" y="0" width="28" height="28"></rect>
                <path d="M1.6877193,9 L5.6248136,9 C6.00460429,9 6.3125,8.77614723 6.3125,8.49997611 C6.3125,8.22385277 6.00460426,8 5.6248136,8 L1.6877193,8 C1.30786288,8 1,8.22385277 1,8.49997611 C1,8.77614723 1.30786288,9 1.6877193,9 Z M1.6877193,13 C1.30786288,13 1,13.2238688 1,13.500012 C1,13.7760834 1.30789574,14 1.6877193,14 L5.6248136,14 C6.00460429,14 6.3125,13.7760834 6.3125,13.500012 C6.3125,13.2238688 6.00460426,13 5.6248136,13 L1.6877193,13 Z M5.6248136,18 L1.6877193,18 C1.30786288,18 1,18.223922 1,18.5001195 C1,18.7761975 1.30789574,19 1.6877193,19 L5.6248136,19 C6.00460429,19 6.3125,18.7761975 6.3125,18.5001195 C6.3125,18.223922 6.00460426,18 5.6248136,18 Z M23.4347249,1 L6.19020931,1 C4.49741994,1 3.125,2.29137283 3.125,3.88444139 L3.125,6.00321114 L4.5216186,6.00321114 L4.5216186,4.2246574 C4.5216186,2.98566594 5.24840083,2.30170677 6.56512436,2.30170677 L23.0917679,2.30170677 C24.4085572,2.30170677 25.1352736,2.98563501 25.1352736,4.2246574 L25.1352736,23.8087268 C25.1352736,25.047873 24.4085243,25.7317393 23.0917679,25.7317393 L6.56512436,25.7317393 C5.2484008,25.7317393 4.5216186,25.0478421 4.5216186,23.8087268 L4.5216186,22.030235 L3.125,22.030235 L3.125,24.1154967 C3.125,25.7085653 4.49738707,27 6.19020931,27 L23.4347578,27 C25.1276458,27 26.5,25.7085653 26.5,24.1154967 L26.5,3.88444139 C26.5,2.29137283 25.1276129,1 23.4347249,1 Z M17.3956951,16.5917659 C19.0165727,15.713169 20.1210717,14.054765 20.1210717,12.1333739 C20.1210717,9.2982709 17.7391095,7 14.8007525,7 C11.8622459,7 9.48022387,9.2982709 9.48022387,12.1333739 C9.48022387,14.0588367 10.5894817,15.7202151 12.2159861,16.5971371 C10.6491617,17.2498834 9.08850282,18.4751254 8.4375,20 L9.78927887,20 C10.6547885,18.4260048 12.6522128,17.3374687 14.6096209,17.2668633 C14.6729224,17.2666901 14.7365232,17.2666901 14.8007825,17.2666901 C14.8728834,17.2666901 14.9445353,17.2666901 15.0155886,17.2668633 C16.9730865,17.3375843 18.9702714,18.4261781 19.8358708,20 L21.1875,20 C20.5346415,18.4709093 18.968715,17.2430394 17.3956951,16.5917659 Z M10.5625,12 C10.5625,9.79091891 12.4654029,8 14.8125622,8 C17.1598148,8 19.0625,9.79091894 19.0625,12 C19.0625,14.2091982 17.1598148,16 14.8125622,16 C12.4653407,16 10.5625,14.2091689 10.5625,12 Z" id="Shape" fill="#FFFFFF"></path>
            </g>
        </g>
    </g>
</svg>