<?xml version="1.0" encoding="UTF-8"?>
<svg width="26px" height="26px" viewBox="0 0 26 26" version="1.1" xmlns="http://www.w3.org/2000/svg" xmlns:xlink="http://www.w3.org/1999/xlink">
    <!-- Generator: Sketch 63.1 (92452) - https://sketch.com -->
    <title>icon5</title>
    <desc>Created with Sketch.</desc>
    <g id="设计" stroke="none" stroke-width="1" fill="none" fill-rule="evenodd">
        <g id="0-2确认票号信息" transform="translate(-354.000000, -770.000000)" fill-rule="nonzero">
            <g id="icon5" transform="translate(353.000000, 769.000000)">
                <rect id="矩形" fill="#000000" opacity="0" x="0" y="0" width="28" height="28"></rect>
                <g id="编组-2" transform="translate(1.000000, 1.000000)" fill="#FFFFFF">
                    <path d="M2.20327599,25.4565951 C1.9341538,25.4565951 1.71584578,25.2142212 1.71584578,24.9151168 L1.71584578,0.541446961 C1.71584578,0.24234257 1.9341538,-3.73034936e-14 2.20327599,-3.73034936e-14 L16.6205136,-3.73034936e-14 C16.8896036,-3.73034936e-14 17.1079438,0.24234257 17.1079438,0.541446961 L17.1079438,24.9151481 C17.1079438,25.2142212 16.8896036,25.4565951 16.6205136,25.4565951 L2.20327599,25.4565951 Z M2.69067405,24.3736385 L16.1331477,24.3736385 L16.1331477,1.08292526 L2.69067405,1.08292526 L2.69067405,24.3736385 Z" id="Shape"></path>
                    <path d="M8.81815681,5.83145429 L8.81815681,6.91437955 L4.8663572,6.91437955 L4.8663572,5.83148563 L8.81815681,5.83145429 Z M13.7597395,5.83145429 L13.7597395,6.91437955 L9.80787556,6.91437955 L9.80787556,5.83148563 L13.7597395,5.83145429 Z M21.5890781,15.7789711 L21.5890781,16.8618651 L18.6997141,16.8618651 L18.6997141,15.7789711 L21.5890781,15.7789711 Z M21.5890781,20.2000305 L21.5890781,21.2829558 L18.6997141,21.2829558 L18.6997141,20.2000619 L21.5890781,20.2000305 Z M8.81815681,12.1868349 L8.81815681,13.2697288 L4.8663572,13.2697288 L4.8663572,12.1868349 L8.81815681,12.1868349 Z M13.7597395,12.1868349 L13.7597395,13.2697288 L9.80787556,13.2697288 L9.80787556,12.1868349 L13.7597395,12.1868349 Z M8.81815681,18.5423409 L8.81815681,19.6252348 L4.8663572,19.6252348 L4.8663572,18.5423722 L8.81815681,18.5423409 Z M13.7597395,18.5423409 L13.7597395,19.6252348 L9.80787556,19.6252348 L9.80787556,18.5423722 L13.7597395,18.5423409 Z M25.4691256,24.3736385 L25.4691256,25.4565951 L-2.22044605e-13,25.4565951 L-2.22044605e-13,24.3737012 L25.4691256,24.3736385 Z" id="Shape"></path>
                    <path d="M16.6205458,25.4565951 C16.3514236,25.4565951 16.1331155,25.2142212 16.1331155,24.9151168 L16.1331155,11.8993587 C16.1331155,11.600223 16.3514236,11.3578804 16.6205458,11.3578804 L23.8983253,11.3578804 C24.1674475,11.3578804 24.3857555,11.600223 24.3857555,11.8993587 L24.3857555,24.9151481 C24.3857555,25.2142212 24.1674475,25.4565951 23.8983253,25.4565951 L16.6205458,25.4565951 Z M17.107976,24.3736385 L23.4108951,24.3736385 L23.4108951,12.4408057 L17.107976,12.4408057 L17.107976,24.3736385 Z" id="Shape"></path>
                </g>
            </g>
        </g>
    </g>
</svg>