<?xml version="1.0" encoding="UTF-8"?>
<svg width="26px" height="23px" viewBox="0 0 26 23" version="1.1" xmlns="http://www.w3.org/2000/svg" xmlns:xlink="http://www.w3.org/1999/xlink">
    <!-- Generator: Sketch 63.1 (92452) - https://sketch.com -->
    <title>icon3</title>
    <desc>Created with Sketch.</desc>
    <g id="设计" stroke="none" stroke-width="1" fill="none" fill-rule="evenodd">
        <g id="0-2确认票号信息" transform="translate(-354.000000, -572.000000)" fill-rule="nonzero">
            <g id="icon3" transform="translate(353.000000, 569.000000)">
                <rect id="矩形" fill="#000000" opacity="0" x="0" y="0" width="28" height="28"></rect>
                <g id="Shape-2" transform="translate(1.000000, 3.000000)" fill="#FFFFFF">
                    <path d="M0.6877193,6.68478261 L4.6248136,6.68478261 C5.00460429,6.68478261 5.3125,6.44681738 5.3125,6.15323547 C5.3125,5.85970436 5.00460426,5.62173913 4.6248136,5.62173913 L0.6877193,5.62173913 C0.30786288,5.62173913 5.32907052e-15,5.85970436 5.32907052e-15,6.15323547 C5.32907052e-15,6.44681738 0.30786288,6.68478261 0.6877193,6.68478261 Z M0.6877193,10.9369565 C0.30786288,10.9369565 5.32907052e-15,11.1749388 5.32907052e-15,11.468491 C5.32907052e-15,11.7619669 0.307895744,12 0.6877193,12 L4.6248136,12 C5.00460429,12 5.3125,11.7619669 5.3125,11.468491 C5.3125,11.1749388 5.00460426,10.9369565 4.6248136,10.9369565 L0.6877193,10.9369565 Z M4.6248136,16.2521739 L0.6877193,16.2521739 C0.30786288,16.2521739 5.32907052e-15,16.4902127 5.32907052e-15,16.7838227 C5.32907052e-15,17.0773056 0.307895744,17.3152174 0.6877193,17.3152174 L4.6248136,17.3152174 C5.00460429,17.3152174 5.3125,17.0773056 5.3125,16.7838227 C5.3125,16.4902127 5.00460426,16.2521739 4.6248136,16.2521739 Z M22.4347249,0 L5.19020931,0 C3.49741994,0 2.125,1.14236827 2.125,2.55162123 L2.125,4.42591755 L3.5216186,4.42591755 L3.5216186,2.85258154 C3.5216186,1.75655064 4.24840083,1.15150984 5.56512436,1.15150984 L22.0917679,1.15150984 C23.4085572,1.15150984 24.1352736,1.75652328 24.1352736,2.85258154 L24.1352736,20.1769507 C24.1352736,21.2731184 23.4085243,21.8780771 22.0917679,21.8780771 L5.56512436,21.8780771 C4.2484008,21.8780771 3.5216186,21.2730911 3.5216186,20.1769507 L3.5216186,18.6036694 L2.125,18.6036694 L2.125,20.448324 C2.125,21.857577 3.49738707,23 5.19020931,23 L22.4347578,23 C24.1276458,23 25.5,21.857577 25.5,20.448324 L25.5,2.55162123 C25.5,1.14236827 24.1276129,0 22.4347249,0 Z M16.3956951,14.7551599 C18.0165727,13.8211732 19.1210717,12.0582176 19.1210717,10.0156953 C19.1210717,7.00185754 16.7391095,4.55869565 13.8007525,4.55869565 C10.8622459,4.55869565 8.48022387,7.00185754 8.48022387,10.0156953 C8.48022387,12.062546 9.58948168,13.8286635 11.2159861,14.7608697 C9.64916172,15.4547673 8.08850282,16.7572529 7.4375,18.3782609 L8.78927887,18.3782609 C9.6547885,16.7050356 11.6522128,15.5478744 13.6096209,15.4728178 C13.6729224,15.4726336 13.7365232,15.4726336 13.8007825,15.4726336 C13.8728834,15.4726336 13.9445353,15.4726336 14.0155886,15.4728178 C15.9730865,15.5479972 17.9702714,16.7052198 18.8358708,18.3782609 L20.1875,18.3782609 C19.5346415,16.7527709 17.968715,15.4474919 16.3956951,14.7551599 Z M9.5625,9.87391303 C9.5625,7.5255638 11.4654029,5.62173913 13.8125622,5.62173913 C16.1598148,5.62173913 18.0625,7.52556383 18.0625,9.87391303 C18.0625,12.2223867 16.1598148,14.126087 13.8125622,14.126087 C11.4653407,14.126087 9.5625,12.2223556 9.5625,9.87391303 Z" id="Shape"></path>
                </g>
            </g>
        </g>
    </g>
</svg>