<?xml version="1.0" encoding="UTF-8"?>
<svg width="26px" height="22px" viewBox="0 0 26 22" version="1.1" xmlns="http://www.w3.org/2000/svg" xmlns:xlink="http://www.w3.org/1999/xlink">
    <!-- Generator: Sketch 63.1 (92452) - https://sketch.com -->
    <title>icon2</title>
    <desc>Created with Sketch.</desc>
    <g id="设计" stroke="none" stroke-width="1" fill="none" fill-rule="evenodd">
        <g id="0-2确认票号信息" transform="translate(-354.000000, -475.000000)" fill-rule="nonzero">
            <g id="icon2" transform="translate(353.000000, 472.000000)">
                <rect id="矩形" fill="#000000" opacity="0" x="0" y="0" width="28" height="28"></rect>
                <g id="编组-5" transform="translate(1.000000, 3.000000)" fill="#FFFFFF">
                    <path d="M21.8487768,21.2558374 L3.56398486,21.2558374 C1.5882976,21.2558374 -1.19015908e-13,19.7023805 -1.19015908e-13,17.7700316 L-1.19015908e-13,3.48580577 C-1.19015908e-13,1.55345692 1.5882976,-4.26325641e-14 3.56398486,-4.26325641e-14 L21.8487768,-4.26325641e-14 C23.824464,-4.26325641e-14 25.4127616,1.55345692 25.4127616,3.48580577 C25.4127616,3.78891932 25.1803279,4.01625447 24.8704161,4.01625447 C24.5605044,4.01625447 24.3280706,3.78891932 24.3280706,3.48580577 C24.3280706,2.12179481 23.2046406,1.02300822 21.8100378,1.02300822 L3.56398486,1.02300822 C2.16938208,1.02300822 1.04595209,2.12179484 1.04595209,3.48580577 L1.04595209,17.7700316 C1.04595209,19.1340426 2.16938211,20.2328292 3.56398486,20.2328292 L21.8487768,20.2328292 C23.2433796,20.2328292 24.3668096,19.1340426 24.3668096,17.7700316 L24.3668096,7.12316833 C24.3668096,6.82005479 24.5992434,6.59271964 24.9091551,6.59271964 C25.2190668,6.59271964 25.4515006,6.82005479 25.4515006,7.12316833 L25.4515006,17.7700316 C25.4127616,19.7023805 23.824464,21.2558374 21.8487768,21.2558374 Z" id="Shape"></path>
                    <polygon id="Shape" points="4.26128625 15.3072341 10.9631273 15.3072341 10.9631273 14.1326691 4.26128625 14.1326691"></polygon>
                    <polygon id="Shape" points="4.26128625 11.177312 10.9631273 11.177312 10.9631273 9.96485782 4.26128625 9.96485782"></polygon>
                    <polygon id="Shape" points="4.26128625 7.00950077 10.9631273 7.00950077 10.9631273 5.83493576 4.26128625 5.83493576"></polygon>
                    <path d="M18.9433543,11.0636444 C19.6019168,10.5331957 20.0280454,9.69963347 20.0280454,8.79029284 C20.0280454,7.16105753 18.6721816,5.83493576 17.006406,5.83493576 C15.3406305,5.83493576 13.9847667,7.16105753 13.9847667,8.79029284 C13.9847667,9.69963347 14.4108953,10.4953065 15.0694577,11.0636444 C13.7135939,11.7456499 12.7838588,13.1475501 12.7838588,14.7388962 C12.7838588,15.0798989 13.0550315,15.3451233 13.4036822,15.3451233 C13.7523329,15.3451233 14.0235057,15.0798989 14.0235057,14.7388962 C14.0235057,13.1096609 15.3793695,11.7835391 17.045145,11.7835391 C18.7109205,11.7835391 20.0667844,13.1096609 20.0667844,14.7388962 C20.0667844,15.0798989 20.3379571,15.3451233 20.6866078,15.3451233 C21.0352585,15.3451233 21.3064313,15.0798989 21.3064313,14.7388962 C21.2676923,13.1096609 20.2992181,11.7456499 18.9433543,11.0636444 Z M17.006406,10.5710849 C15.9991929,10.5710849 15.1856747,9.77541184 15.1856747,8.79029284 C15.1856747,7.80517381 15.999193,7.00950077 17.006406,7.00950077 C18.0136191,7.00950077 18.8271374,7.80517385 18.8271374,8.79029284 C18.8271374,9.77541184 18.0136192,10.5710849 17.006406,10.5710849 Z" id="Shape"></path>
                </g>
            </g>
        </g>
    </g>
</svg>