<?xml version="1.0" encoding="UTF-8"?>
<svg width="372px" height="372px" viewBox="0 0 372 372" version="1.1" xmlns="http://www.w3.org/2000/svg"
     xmlns:xlink="http://www.w3.org/1999/xlink">
    <!-- Generator: Sketch 63.1 (92452) - https://sketch.com -->
    <title>材料录入完成</title>
    <desc>Created with Sketch.</desc>
    <g id="设计" stroke="none" stroke-width="1" fill="none" fill-rule="evenodd">
        <g id="8-完成收件" transform="translate(-976.000000, -345.000000)" fill-rule="nonzero">
            <g id="材料录入完成" transform="translate(976.000000, 345.000000)">
                <path d="M372,186 C372,288.724963 288.724963,372 186,372 C83.2750365,372 0,288.724963 0,186 C0,83.2750365 83.2750365,0 186,0 C288.724963,0 372,83.2750365 372,186 Z"
                      id="路径" fill="#216695"></path>
                <path d="M296.822894,104.974492 L290.710636,106.584843 L267.542619,103.583734 L257.07492,118.003697 L224.683616,79.1356746 C224.683616,79.1356746 228.673053,91.4695007 221.535986,83.6373383 C214.398919,75.8051759 199.57578,75 199.57578,75 L168.941292,103.583734 C168.941292,103.583734 133.62196,121.883179 129.925325,122.944547 C126.228691,124.005916 80.8808647,262.935305 80.8808647,262.935305 L74,274.939741 L170.075903,371.268022 C175.382953,371.743808 180.763203,372 186.180054,372 C288.805576,372 372,288.808879 372,186.187431 L372,180.038817 L296.822894,104.974492 Z"
                      id="路径" fill="#233643" opacity="0.671061198"></path>
                <path d="M212.018323,123.011344 L268.122065,123.011344 C275.996362,122.700486 282.643334,128.81634 283,136.700478 L283,289.336155 C282.623868,297.205735 275.982722,303.299847 268.122065,302.988589 L155.877936,302.988589 C148.017279,303.299847 141.376132,297.205735 141,289.336155 L141,278.546329"
                      id="路径" fill="#CCD0D1"></path>
                <path d="M211.205339,179 L257,179 L257,188.818786 L211.205339,188.818786 L211.205339,179 Z M211.205339,215.590607 L257,215.590607 L257,225.409393 L211.205339,225.409393 L211.205339,215.590607 Z M185,252.181214 L257,252.181214 L257,262 L185,262 L185,252.181214 Z"
                      id="形状" fill="#929496"></path>
                <path d="M211,264.296595 C210.624079,272.171447 203.994338,278.276063 196.133574,277.985488 L83.9762763,277.985488 C76.07347,278.338267 69.3755892,272.216147 69,264.296595 L69,111.663604 C69.3758415,103.794163 76.0118502,97.700158 83.8664262,98.0114109 L196.133574,98.0114109 C203.98815,97.700158 210.624159,103.794163 211,111.663604 L211,264.296595 Z"
                      id="路径" fill="#FFFFFF"></path>
                <g id="对备份" transform="translate(177.000000, 244.000000)" fill="#21D349">
                    <path d="M13.5,0 C6.04414286,0 0,6.04414286 0,13.5 C0,20.9558571 6.04414286,27 13.5,27 C20.9558571,27 27,20.9558571 27,13.5 C27,6.04414286 20.9558571,0 13.5,0 Z M21.6449974,10.1354079 L13.475451,18.2711961 C13.0854475,18.6596013 12.4530627,18.6596013 12.0630592,18.2711961 L7.0425026,13.2712133 C6.65249913,12.8828081 6.65249913,12.2530147 7.0425026,11.8646094 C7.43250607,11.4762041 8.06489094,11.4762041 8.45489441,11.8646094 L12.7693957,16.1614302 L20.2326056,8.72880395 C20.6226091,8.34039868 21.2549939,8.34039868 21.6449974,8.72880395 C22.0350009,9.11720922 22.0350009,9.74700261 21.6449974,10.1354079 Z"
                          id="形状"></path>
                </g>
                <g id="对备份-6" transform="translate(249.000000, 269.000000)" fill="#21D349">
                    <path d="M13.5,0 C6.04414286,0 0,6.04414286 0,13.5 C0,20.9558571 6.04414286,27 13.5,27 C20.9558571,27 27,20.9558571 27,13.5 C27,6.04414286 20.9558571,0 13.5,0 Z M21.6449974,10.1354079 L13.475451,18.2711961 C13.0854475,18.6596013 12.4530627,18.6596013 12.0630592,18.2711961 L7.0425026,13.2712133 C6.65249913,12.8828081 6.65249913,12.2530147 7.0425026,11.8646094 C7.43250607,11.4762041 8.06489094,11.4762041 8.45489441,11.8646094 L12.7693957,16.1614302 L20.2326056,8.72880395 C20.6226091,8.34039868 21.2549939,8.34039868 21.6449974,8.72880395 C22.0350009,9.11720922 22.0350009,9.74700261 21.6449974,10.1354079 Z"
                          id="形状"></path>
                </g>
                <path d="M254.910318,165.998233 C249.158133,166.02833 243.615265,163.827 239.43188,159.851027 C235.310732,155.876736 232.986484,150.375586 233.000698,144.629374 C232.952775,138.654011 235.374672,132.927733 239.68622,128.822273 L264.139246,105.404345 C268.425423,101.259763 274.147997,98.9624721 280.09003,99.0010055 C285.836052,98.9459783 291.376517,101.151531 295.532134,105.148212 C299.673849,109.111225 302.012958,114.616447 301.999826,120.369865 C302.023667,126.337153 299.5898,132.047378 295.277794,136.140375 L271.042775,159.594894 C266.705088,163.773911 260.912863,166.072977 254.910318,165.998233 Z M280.09003,108.770672 C276.657445,108.730804 273.345397,110.043952 270.861103,112.429723 L246.408077,136.140375 C244.078952,138.384757 242.765639,141.492801 242.774595,144.739145 C242.816555,147.847262 244.131354,150.799935 246.408077,152.89883 C251.59181,157.404421 259.30237,157.294391 264.357252,152.642696 L288.555937,128.822273 C290.881491,126.575406 292.194122,123.468978 292.189386,120.223502 C292.147459,117.115386 290.83266,114.162713 288.555937,112.063818 C286.245259,109.933597 283.222697,108.757853 280.09003,108.770672 L280.09003,108.770672 Z"
                      id="形状" fill="#5D5E5E"></path>
                <path d="M180.921717,135.999537 C175.165051,136.036665 169.616522,133.837846 165.435003,129.861856 C161.311652,125.894029 158.986162,120.401827 159.00019,114.664962 C158.975288,108.746458 161.398042,103.08345 165.68948,99.0296965 L190.26464,75.5037357 C194.505946,71.3707243 200.170616,69.0414687 206.078537,69.0012187 C211.839454,68.9406094 217.396253,71.1427054 221.565251,75.1384259 C225.688602,79.1062523 228.014092,84.5984545 227.999936,90.3353197 C228.011164,96.2584347 225.575607,101.920595 221.27442,105.970585 L196.844675,129.496546 C192.584761,133.668915 186.870417,136.002502 180.921717,135.999537 L180.921717,135.999537 Z M206.078537,78.8641395 C202.646241,78.8363414 199.336585,80.1457068 196.844675,82.5176867 L172.414931,106.043647 C170.08456,108.284379 168.770545,111.387367 168.779506,114.628431 C168.785819,117.739307 170.107458,120.700928 172.414931,122.774843 C177.574579,127.218661 185.214596,127.124846 190.26464,122.555657 L214.694385,99.0296965 C217.031973,96.7939863 218.347376,93.6877213 218.329938,90.4449127 C218.323496,87.3340365 217.001858,84.3724161 214.694385,82.2985007 C212.374418,80.0741674 209.285023,78.8428649 206.078537,78.8641395 L206.078537,78.8641395 Z"
                      id="形状" fill="#5D5E5E"></path>
                <path d="M98,155 L184,155 L184,164.818786 L98,164.818786 L98,155 Z M98,191.590607 L184,191.590607 L184,201.409393 L98,201.409393 L98,191.590607 Z M98,228.181214 L184,228.181214 L184,238 L98,238 L98,228.181214 Z"
                      id="形状" fill="#929496"></path>
            </g>
        </g>
    </g>
</svg>
