<?xml version="1.0" encoding="UTF-8"?>
<svg width="42px" height="42px" viewBox="0 0 42 42" version="1.1" xmlns="http://www.w3.org/2000/svg"
     xmlns:xlink="http://www.w3.org/1999/xlink">
    <!-- Generator: Sketch 63.1 (92452) - https://sketch.com -->
    <title>二维码</title>
    <desc>Created with Sketch.</desc>
    <g id="设计" stroke="none" stroke-width="1" fill="none" fill-rule="evenodd">
        <g id="0-1扫描二维码" transform="translate(-691.000000, -602.000000)" fill-rule="nonzero">
            <g id="编组-2" transform="translate(557.000000, 390.000000)">
                <g id="二维码" transform="translate(131.000000, 209.000000)">
                    <rect id="矩形" fill="#000000" opacity="0" x="0" y="0" width="48" height="48"></rect>
                    <path d="M4.29838439,3 L21.1209014,3 C22.8317072,3.16718148 22.4193795,6.1384843 22.4193795,8.06896875 L22.4193795,17.2599663 C22.4193795,19.2574265 22.8006314,21.7058126 21.4597347,22.2732548 C20.5864738,22.6427226 18.2428105,22.3845685 17.1129288,22.3845685 L8.19363129,22.3845685 C6.1318057,22.3845685 3.31647563,22.8702244 3.00004687,21.1034063 L3.00004687,4.28106852 C3.23065411,3.65452464 3.63613851,3.20059903 4.29838439,3 Z M6.61289365,6.78780649 L6.61289365,18.7638966 L18.7500527,18.7638966 L18.7500527,6.62062501 L6.66942055,6.62062501 C6.60365999,6.62999879 6.60815964,6.70869173 6.61289365,6.78780649 Z M26.8790049,3 L43.7015219,3 C44.387719,3.25117061 44.8592921,3.71442313 45,4.50393029 L45,20.8806382 C44.8459806,21.561222 44.4860083,22.1424905 43.8145288,22.328982 C42.7171289,22.63363 40.8938787,22.3845685 39.5805892,22.3845685 L30.9435512,22.3845685 C29.6410422,22.3845685 27.7106908,22.6553303 26.6531785,22.328982 C25.1603716,21.8680729 25.5806673,18.9926639 25.5806673,16.9813774 L25.5806673,8.4031911 C25.5806673,6.08092925 25.0640509,3.32452049 26.8790049,3 L26.8790049,3 Z M29.193561,6.78780649 L29.193561,18.7638966 L41.3305795,18.7638966 L41.3305795,6.62062501 L29.2499473,6.62062501 C29.1842805,6.62999879 29.1886395,6.70869173 29.193561,6.78780649 Z M12.1451707,10.297024 C13.8355406,9.98229917 15.1648132,11.1093095 15.1936391,12.6366274 C15.2314643,14.650726 13.1466717,15.7570203 11.5242186,14.9205036 C9.6681115,13.9631588 9.79021147,10.7356235 12.1451707,10.297024 Z M34.7257912,10.297024 C38.7072815,9.56310344 38.6309748,15.7850479 34.7257912,15.1432716 C32.2404826,14.7348558 32.1603794,10.7700722 34.7257912,10.297024 L34.7257912,10.297024 Z M21.0080351,45 L4.35491128,45 C3.6635114,44.7909646 3.196438,44.360614 3,43.6632512 L3,26.8966406 C3.16451858,26.4059229 3.5440831,25.8336064 4.12903805,25.6710649 C5.2341717,25.3642609 7.03904833,25.6154784 8.36283701,25.6154784 L17.0000156,25.6154784 C18.2765111,25.6154784 20.1341649,25.3343116 21.2902477,25.6710649 C22.8542992,26.1267715 22.4192858,28.9554053 22.4192858,30.9629423 L22.4192858,39.8196238 C22.4193795,41.9864214 22.8921713,44.8066657 21.0080351,45 Z M6.61289365,29.4032848 L6.61289365,41.379375 L18.7500527,41.379375 L18.7500527,29.2361034 L6.66942055,29.2361034 C6.60365999,29.2454771 6.60815964,29.3241701 6.61289365,29.4032848 L6.61289365,29.4032848 Z M45,27.1193618 L45,31.7984279 C44.8682445,33.3766923 44.9811108,35.1961911 44.9434262,36.8673966 L32.9193678,36.8673966 L32.9193678,34.1380312 C31.7901891,34.00797 30.4166699,34.1192837 29.1935141,34.0821635 C29.0617586,37.6101286 29.1747656,41.3793281 29.137081,44.9999531 L26.9353911,44.9999531 C25.0424432,44.6255641 25.5806205,41.8228488 25.5806205,39.5969026 L25.5806205,30.9628486 C25.5806205,29.6645791 25.3142972,27.7183936 25.6370536,26.6736851 C26.0221021,25.4273933 27.6919891,25.6153846 29.3629073,25.6153846 L37.5482457,25.6153846 L37.5482457,33.023863 L41.3305326,33.023863 C41.3680766,30.5729459 41.2552103,27.9735012 41.3869657,25.6153846 C43.2071693,25.509039 44.8930395,25.5352387 45,27.1193618 L45,27.1193618 Z M12.4274303,32.8567284 C14.2323069,32.6595976 15.7244107,34.3712979 15.0242459,36.2546322 C14.05368,38.8652786 9.41327175,37.8839838 10.2823142,34.5835204 C10.5224363,33.6713104 11.2163673,32.9890394 12.4274303,32.8567284 L12.4274303,32.8567284 Z M36.9839142,45 L32.9193678,45 C32.9569118,43.5702632 32.8440455,41.9921394 32.975801,40.6551094 L36.9839142,40.6551094 L36.9839142,45 Z M45,40.6551094 L45,43.4960697 C44.8428871,44.2882015 44.3736107,44.7719358 43.6450887,45 L40.7660136,45 C40.8036982,43.5702632 40.6908318,41.9921394 40.8225873,40.6551094 L45,40.6551094 Z"
                          id="形状" fill="#FFFFFF"></path>
                </g>
            </g>
        </g>
    </g>
</svg>
