<?xml version="1.0" encoding="UTF-8"?>
<svg width="16px" height="18px" viewBox="0 0 16 18" version="1.1" xmlns="http://www.w3.org/2000/svg"
     xmlns:xlink="http://www.w3.org/1999/xlink">
    <!-- Generator: Sketch 63.1 (92452) - https://sketch.com -->
    <title>填写规则</title>
    <desc>Created with Sketch.</desc>
    <g id="设计" stroke="none" stroke-width="1" fill="none" fill-rule="evenodd">
        <g id="1-3-1申请表信息" transform="translate(-1081.000000, -311.000000)" fill-rule="nonzero">
            <g id="编组备份-46" transform="translate(1073.000000, 304.000000)">
                <g id="填写规则" transform="translate(6.000000, 6.000000)">
                    <rect id="矩形" fill="#000000" opacity="0" x="0" y="0" width="20" height="20"></rect>
                    <path d="M17.4368991,5.11057693 L17.3219652,16.5492037 C17.3219652,17.783729 16.3585487,18.7883864 15.1740535,18.7883864 L4.70966051,18.7883864 C3.5258414,18.7883864 2.56242493,17.783729 2.56242493,16.5485277 L2.56242493,3.45012019 C2.56242493,2.21559494 3.5258414,1.2109375 4.70966051,1.2109375 L13.8266226,1.2109375 L13.8421725,1.22783954 L17.4368991,5.08691406 L17.4368991,5.11057693 L17.4368991,5.11057693 Z M13.1363432,2.49549278 L13.1363432,5.09840744 C13.1363432,5.22686297 13.1836689,5.34720551 13.2702074,5.43644831 C13.3543926,5.5260224 13.4718013,5.57689953 13.5947266,5.57707331 L16.0901443,5.57707331 L13.1363432,2.49549278 Z M16.1665415,6.78185097 L13.0815806,6.78185097 C12.4744592,6.78185097 11.9802435,6.26667669 11.9802434,5.63386419 L11.9802434,2.41571515 L4.70966051,2.41571515 C4.16271039,2.41571515 3.71717252,2.87950722 3.71717252,3.45012019 L3.71717252,16.5485277 C3.71717252,17.1191406 4.16271039,17.5836088 4.70966051,17.5836088 L15.1740535,17.5836088 C15.7210037,17.5836088 16.1665415,17.1191406 16.1665415,16.5485277 L16.1665415,6.78185097 Z M13.7826773,14.0504057 L13.7772687,14.0510817 L5.61966652,14.0510817 C5.33595031,13.9908377 5.1341951,13.7387144 5.13756603,13.4486929 C5.13381847,13.1622375 5.33034787,12.91193 5.6095253,12.8476563 L13.77186,12.8463041 C14.0555516,12.906746 14.2574124,13.1586479 14.254646,13.4486929 C14.2587052,13.7354002 14.0621055,13.9860788 13.7826773,14.0504057 L13.7826773,14.0504057 Z M13.7826773,11.2230318 L13.7772687,11.224384 L5.61966652,11.224384 C5.33624404,11.1636642 5.13472376,10.9118345 5.13758942,10.6219952 C5.13758942,10.330604 5.33571218,10.0784255 5.60884921,10.0202824 L13.77186,10.0196064 C14.0564904,10.0784255 14.2546366,10.330604 14.2546366,10.6219952 C14.2583842,10.9084506 14.0618548,11.1587581 13.7826773,11.2230318 L13.7826773,11.2230318 Z M10.3454778,8.39701022 L5.61966652,8.39701022 C5.33006062,8.36079116 5.11861249,8.10551343 5.13694417,7.81422776 C5.11057698,7.51878004 5.3242188,7.2463191 5.61425786,7.21454328 L10.3393931,7.21386719 C10.6386447,7.25193118 10.8530597,7.52152427 10.8227915,7.82166466 C10.8383411,8.10866449 10.6304136,8.3592967 10.3454778,8.39701022 L10.3454778,8.39701022 Z"
                          id="形状" fill="#FFFFFF"></path>
                </g>
            </g>
        </g>
    </g>
</svg>
