<?xml version="1.0" encoding="UTF-8"?>
<svg width="20px" height="24px" viewBox="0 0 20 24" version="1.1" xmlns="http://www.w3.org/2000/svg"
     xmlns:xlink="http://www.w3.org/1999/xlink">
    <!-- Generator: Sketch 63.1 (92452) - https://sketch.com -->
    <title>信息icon</title>
    <desc>Created with Sketch.</desc>
    <g id="设计" stroke="none" stroke-width="1" fill="none" fill-rule="evenodd">
        <g id="1-3-1申请表信息" transform="translate(-538.000000, -240.000000)" fill-rule="nonzero">
            <g id="信息icon" transform="translate(534.000000, 238.000000)">
                <rect id="矩形" fill="#000000" opacity="0" x="0" y="0" width="28" height="28"></rect>
                <path d="M20.2769726,2 L7.42673108,2 C5.54202899,2 4,3.59012346 4,5.53360768 L4,22.3182442 C4,24.2617284 5.54202899,25.8518519 7.42673108,25.8518519 L16.8930757,25.8518519 C17.7925926,25.8518519 18.6492754,25.4984911 19.3346216,24.8359396 L22.7185185,21.3465021 C23.3610306,20.6839506 23.7037037,19.8005487 23.7037037,18.8288066 L23.7037037,5.53360768 C23.7037037,3.59012346 22.1616747,2 20.2769726,2 Z M5.71336554,22.3182442 L5.71336554,5.53360768 C5.71336554,4.56186557 6.48438003,3.76680384 7.42673108,3.76680384 L20.2769726,3.76680384 C21.2193237,3.76680384 21.9903382,4.56186557 21.9903382,5.53360768 L21.9903382,18.3429355 L19.4202899,18.3429355 C17.5355878,18.3429355 15.9935588,19.933059 15.9935588,21.8765432 L15.9935588,24.085048 L7.42673108,24.085048 C6.48438003,24.085048 5.71336554,23.2899863 5.71336554,22.3182442 Z M18.0924316,23.5550069 C17.9639291,23.6875171 17.8354267,23.7758573 17.7069243,23.8641975 L17.7069243,21.8765432 C17.7069243,20.9048011 18.4779388,20.1097394 19.4202899,20.1097394 L21.4334944,20.1097394 L18.0924316,23.5550069 Z M9.99677939,9.50891632 L17.7069243,9.50891632 C18.1780998,9.50891632 18.5636071,9.11138546 18.5636071,8.6255144 C18.5636071,8.13964335 18.1780998,7.74211248 17.7069243,7.74211248 L9.99677939,7.74211248 C9.52560386,7.74211248 9.14009662,8.13964335 9.14009662,8.6255144 C9.14009662,9.11138546 9.52560386,9.50891632 9.99677939,9.50891632 Z M13.4235105,16.5761317 L9.99677939,16.5761317 C9.52560386,16.5761317 9.14009662,16.9736626 9.14009662,17.4595336 C9.14009662,17.9454047 9.52560386,18.3429355 9.99677939,18.3429355 L13.4235105,18.3429355 C13.894686,18.3429355 14.2801932,17.9454047 14.2801932,17.4595336 C14.2801932,16.9736626 13.894686,16.5761317 13.4235105,16.5761317 Z M9.99677939,13.9259259 L17.7069243,13.9259259 C18.1780998,13.9259259 18.5636071,13.5283951 18.5636071,13.042524 C18.5636071,12.5566529 18.1780998,12.1591221 17.7069243,12.1591221 L9.99677939,12.1591221 C9.52560386,12.1591221 9.14009662,12.5566529 9.14009662,13.042524 C9.14009662,13.5283951 9.52560386,13.9259259 9.99677939,13.9259259 Z"
                      id="形状" fill="#FFFFFF"></path>
            </g>
        </g>
    </g>
</svg>
