<?xml version="1.0" encoding="UTF-8"?>
<svg width="28px" height="28px" viewBox="0 0 28 28" version="1.1" xmlns="http://www.w3.org/2000/svg"
     xmlns:xlink="http://www.w3.org/1999/xlink">
    <!-- Generator: Sketch 63.1 (92452) - https://sketch.com -->
    <title>形状</title>
    <desc>Created with Sketch.</desc>
    <g id="设计" stroke="none" stroke-width="1" fill="none" fill-rule="evenodd">
        <g id="1-2智能提取材料" transform="translate(-137.000000, -281.000000)" fill="#21D349" fill-rule="nonzero">
            <g id="编组-2" transform="translate(120.000000, 257.000000)">
                <path d="M31,24 C23.268,24 17,30.268 17,38 C17,45.732 23.268,52 31,52 C38.732,52 45,45.732 45,38 C45,30.268 38.732,24 31,24 Z M39.446664,34.5107934 L30.9745418,42.947907 C30.5700937,43.3506977 29.9142872,43.3506977 29.5098392,42.947907 L24.303336,37.7627398 C23.898888,37.3599491 23.898888,36.70683 24.303336,36.3040394 C24.7077841,35.9012487 25.3635906,35.9012487 25.7680386,36.3040394 L30.2423363,40.7600017 L37.9819614,33.052093 C38.3864094,32.6493023 39.0422159,32.6493023 39.446664,33.052093 C39.851112,33.4548836 39.851112,34.1080027 39.446664,34.5107934 Z"
                      id="形状"></path>
            </g>
        </g>
    </g>
</svg>
