<?xml version="1.0" encoding="UTF-8"?>
<svg width="41px" height="41px" viewBox="0 0 41 41" version="1.1" xmlns="http://www.w3.org/2000/svg"
     xmlns:xlink="http://www.w3.org/1999/xlink">
    <!-- Generator: Sketch 63.1 (92452) - https://sketch.com -->
    <title>收件流程</title>
    <desc>Created with Sketch.</desc>
    <g id="设计" stroke="none" stroke-width="1" fill="none" fill-rule="evenodd">
        <g id="1-1收件流程" transform="translate(-154.000000, -166.000000)" fill-rule="nonzero">
            <g id="收件流程" transform="translate(150.000000, 163.000000)">
                <rect id="矩形" fill="#000000" opacity="0" x="0" y="0" width="48" height="48"></rect>
                <path d="M10.2033097,24.4977659 L10.2033097,24.4977659 L10.2033097,24.4977659 L10.5062057,24.4977659 L10.2033097,24.4977659 Z M38.6028369,35.7806604 L43.1583924,35.7806604 C44.1276596,35.7806604 45,36.5542453 45,37.6179245 L45,42.1627358 C45,43.129717 44.2245863,44 43.1583924,44 L38.6028369,44 C37.6335697,44 36.7612293,43.2264151 36.7612293,42.1627358 L36.7612293,40.3254717 L35.8888889,40.3254717 C33.3687943,40.3254717 31.3333333,38.2948113 31.3333333,35.7806604 L31.3333333,28.5283019 L26.7777778,28.5283019 L26.7777778,37.6179245 C26.7777778,38.5849057 26.0023641,39.4551887 24.9361702,39.4551887 L5.84160757,39.4551887 C4.87234043,39.4551887 4,38.6816038 4,37.6179245 L4,18.4716981 C4,17.504717 4.77541371,16.634434 5.84160757,16.634434 L14.9527187,16.634434 L14.9527187,8.51179245 L5.84160757,8.51179245 C4.77541371,8.51179245 4,7.73820755 4,6.6745283 L4,4.83726415 C4,3.87028302 4.77541371,3 5.84160757,3 L43.1583924,3 C44.1276596,3 45,3.77358491 45,4.83726415 L45,6.6745283 C45,7.64150943 44.2245863,8.51179245 43.1583924,8.51179245 L15.8250591,8.51179245 L15.8250591,16.7311321 L24.9361702,16.7311321 C25.9054374,16.7311321 26.7777778,17.504717 26.7777778,18.5683962 L26.7777778,27.5613208 L31.3333333,27.5613208 L31.3333333,20.3089623 C31.3333333,17.7948113 33.3687943,15.7641509 35.8888889,15.7641509 L36.7612293,15.7641509 L36.7612293,13.9268868 C36.7612293,12.9599057 37.536643,12.0896226 38.6028369,12.0896226 L43.1583924,12.0896226 C44.1276596,12.0896226 45,12.8632075 45,13.9268868 L45,18.4716981 C45,19.4386792 44.2245863,20.3089623 43.1583924,20.3089623 L38.6028369,20.3089623 C37.6335697,20.3089623 36.7612293,19.5353774 36.7612293,18.4716981 L36.7612293,16.634434 L35.8888889,16.634434 C33.8534279,16.634434 32.2056738,18.2783019 32.2056738,20.3089623 L32.2056738,27.5613208 L36.7612293,27.5613208 L36.7612293,25.7240566 C36.7612293,24.7570755 37.536643,23.8867925 38.6028369,23.8867925 L43.1583924,23.8867925 C44.1276596,23.8867925 45,24.6603774 45,25.7240566 L45,30.2688679 C45,31.2358491 44.2245863,32.1061321 43.1583924,32.1061321 L38.6028369,32.1061321 C37.6335697,32.1061321 36.7612293,31.3325472 36.7612293,30.2688679 L36.7612293,28.5283019 L32.2056738,28.5283019 L32.2056738,35.7806604 C32.2056738,37.8113208 33.8534279,39.4551887 35.8888889,39.4551887 L36.7612293,39.4551887 L36.7612293,37.6179245 C36.7612293,36.5542453 37.6335697,35.7806604 38.6028369,35.7806604 Z"
                      id="形状" fill="#FFFFFF"></path>
            </g>
        </g>
    </g>
</svg>
