<?xml version="1.0" encoding="UTF-8"?>
<svg width="1142px" height="38px" viewBox="0 0 1142 38" version="1.1" xmlns="http://www.w3.org/2000/svg"
     xmlns:xlink="http://www.w3.org/1999/xlink">
    <!-- Generator: Sketch 63.1 (92452) - https://sketch.com -->
    <title>识别过程</title>
    <desc>Created with Sketch.</desc>
    <defs>
        <rect id="path-1" x="0" y="0" width="1140" height="36" rx="18"></rect>
        <linearGradient x1="50%" y1="41.4933801%" x2="50%" y2="58.1559099%" id="linearGradient-3">
            <stop stop-color="#367CAE" offset="0%"></stop>
            <stop stop-color="#55ADEB" offset="46.1381769%"></stop>
            <stop stop-color="#367CAE" offset="100%"></stop>
        </linearGradient>
        <linearGradient x1="50%" y1="41.5493126%" x2="50%" y2="58.154653%" id="linearGradient-4">
            <stop stop-color="#2373AE" offset="0%"></stop>
            <stop stop-color="#3790D2" offset="52.3779148%"></stop>
            <stop stop-color="#2774AD" offset="100%"></stop>
        </linearGradient>
    </defs>
    <g id="设计" stroke="none" stroke-width="1" fill="none" fill-rule="evenodd">
        <g id="1-2-0扫描过程" transform="translate(-390.000000, -534.000000)">
            <g id="识别过程" transform="translate(391.000000, 535.000000)">
                <mask id="mask-2" fill="white">
                    <use xlink:href="#path-1"></use>
                </mask>
                <rect stroke="#54CDFF" x="-0.5" y="-0.5" width="1141" height="37" rx="18.5"></rect>
                <path d="M60.5162819,-90 L-28.5,127.125 L-46.5,127.125 L42.5162819,-90 L60.5162819,-90 Z M96.5162819,-90 L7.5,127.125 L-10.5,127.125 L78.5162819,-90 L96.5162819,-90 Z M132.516282,-90 L43.5,127.125 L25.5,127.125 L114.516282,-90 L132.516282,-90 Z M168.516282,-90 L79.5,127.125 L61.5,127.125 L150.516282,-90 L168.516282,-90 Z M204.516282,-90 L115.5,127.125 L97.5,127.125 L186.516282,-90 L204.516282,-90 Z M240.516282,-90 L151.5,127.125 L133.5,127.125 L222.516282,-90 L240.516282,-90 Z M276.516282,-90 L187.5,127.125 L169.5,127.125 L258.516282,-90 L276.516282,-90 Z M312.516282,-90 L223.5,127.125 L205.5,127.125 L294.516282,-90 L312.516282,-90 Z M348.516282,-90 L259.5,127.125 L241.5,127.125 L330.516282,-90 L348.516282,-90 Z M384.516282,-90 L295.5,127.125 L277.5,127.125 L366.516282,-90 L384.516282,-90 Z M420.516282,-90 L331.5,127.125 L313.5,127.125 L402.516282,-90 L420.516282,-90 Z M456.516282,-90 L367.5,127.125 L349.5,127.125 L438.516282,-90 L456.516282,-90 Z M492.516282,-90 L403.5,127.125 L385.5,127.125 L474.516282,-90 L492.516282,-90 Z M528.516282,-90 L439.5,127.125 L421.5,127.125 L510.516282,-90 L528.516282,-90 Z M564.516282,-90 L475.5,127.125 L457.5,127.125 L546.516282,-90 L564.516282,-90 Z M600.516282,-90 L511.5,127.125 L493.5,127.125 L582.516282,-90 L600.516282,-90 Z M636.516282,-90 L547.5,127.125 L529.5,127.125 L618.516282,-90 L636.516282,-90 Z M672.516282,-90 L583.5,127.125 L565.5,127.125 L654.516282,-90 L672.516282,-90 Z M708.516282,-90 L619.5,127.125 L601.5,127.125 L690.516282,-90 L708.516282,-90 Z M744.516282,-90 L655.5,127.125 L637.5,127.125 L726.516282,-90 L744.516282,-90 Z M780.516282,-90 L691.5,127.125 L673.5,127.125 L762.516282,-90 L780.516282,-90 Z M816.516282,-90 L727.5,127.125 L709.5,127.125 L798.516282,-90 L816.516282,-90 Z M852.516282,-90 L763.5,127.125 L745.5,127.125 L834.516282,-90 L852.516282,-90 Z M888.516282,-90 L799.5,127.125 L781.5,127.125 L870.516282,-90 L888.516282,-90 Z M924.516282,-90 L835.5,127.125 L817.5,127.125 L906.516282,-90 L924.516282,-90 Z M960.516282,-90 L871.5,127.125 L853.5,127.125 L942.516282,-90 L960.516282,-90 Z M996.516282,-90 L907.5,127.125 L889.5,127.125 L978.516282,-90 L996.516282,-90 Z M1032.51628,-90 L943.5,127.125 L925.5,127.125 L1014.51628,-90 L1032.51628,-90 Z M1068.51628,-90 L979.5,127.125 L961.5,127.125 L1050.51628,-90 L1068.51628,-90 Z M1104.51628,-90 L1015.5,127.125 L997.5,127.125 L1086.51628,-90 L1104.51628,-90 Z M1140.51628,-90 L1051.5,127.125 L1033.5,127.125 L1122.51628,-90 L1140.51628,-90 Z M1176.51628,-90 L1087.5,127.125 L1069.5,127.125 L1158.51628,-90 L1176.51628,-90 Z M1212.51628,-90 L1123.5,127.125 L1105.5,127.125 L1194.51628,-90 L1212.51628,-90 Z"
                      id="Combined-Shape" fill="url(#linearGradient-3)" mask="url(#mask-2)"></path>
                <path d="M78.5162819,-90 L-10.5,127.125 L-28.5,127.125 L60.5162819,-90 L78.5162819,-90 Z M114.516282,-90 L25.5,127.125 L7.5,127.125 L96.5162819,-90 L114.516282,-90 Z M150.516282,-90 L61.5,127.125 L43.5,127.125 L132.516282,-90 L150.516282,-90 Z M186.516282,-90 L97.5,127.125 L79.5,127.125 L168.516282,-90 L186.516282,-90 Z M222.516282,-90 L133.5,127.125 L115.5,127.125 L204.516282,-90 L222.516282,-90 Z M258.516282,-90 L169.5,127.125 L151.5,127.125 L240.516282,-90 L258.516282,-90 Z M294.516282,-90 L205.5,127.125 L187.5,127.125 L276.516282,-90 L294.516282,-90 Z M330.516282,-90 L241.5,127.125 L223.5,127.125 L312.516282,-90 L330.516282,-90 Z M366.516282,-90 L277.5,127.125 L259.5,127.125 L348.516282,-90 L366.516282,-90 Z M402.516282,-90 L313.5,127.125 L295.5,127.125 L384.516282,-90 L402.516282,-90 Z M438.516282,-90 L349.5,127.125 L331.5,127.125 L420.516282,-90 L438.516282,-90 Z M474.516282,-90 L385.5,127.125 L367.5,127.125 L456.516282,-90 L474.516282,-90 Z M510.516282,-90 L421.5,127.125 L403.5,127.125 L492.516282,-90 L510.516282,-90 Z M546.516282,-90 L457.5,127.125 L439.5,127.125 L528.516282,-90 L546.516282,-90 Z M582.516282,-90 L493.5,127.125 L475.5,127.125 L564.516282,-90 L582.516282,-90 Z M618.516282,-90 L529.5,127.125 L511.5,127.125 L600.516282,-90 L618.516282,-90 Z M654.516282,-90 L565.5,127.125 L547.5,127.125 L636.516282,-90 L654.516282,-90 Z M690.516282,-90 L601.5,127.125 L583.5,127.125 L672.516282,-90 L690.516282,-90 Z M726.516282,-90 L637.5,127.125 L619.5,127.125 L708.516282,-90 L726.516282,-90 Z M762.516282,-90 L673.5,127.125 L655.5,127.125 L744.516282,-90 L762.516282,-90 Z M798.516282,-90 L709.5,127.125 L691.5,127.125 L780.516282,-90 L798.516282,-90 Z M834.516282,-90 L745.5,127.125 L727.5,127.125 L816.516282,-90 L834.516282,-90 Z M870.516282,-90 L781.5,127.125 L763.5,127.125 L852.516282,-90 L870.516282,-90 Z M906.516282,-90 L817.5,127.125 L799.5,127.125 L888.516282,-90 L906.516282,-90 Z M942.516282,-90 L853.5,127.125 L835.5,127.125 L924.516282,-90 L942.516282,-90 Z M978.516282,-90 L889.5,127.125 L871.5,127.125 L960.516282,-90 L978.516282,-90 Z M1014.51628,-90 L925.5,127.125 L907.5,127.125 L996.516282,-90 L1014.51628,-90 Z M1050.51628,-90 L961.5,127.125 L943.5,127.125 L1032.51628,-90 L1050.51628,-90 Z M1086.51628,-90 L997.5,127.125 L979.5,127.125 L1068.51628,-90 L1086.51628,-90 Z M1122.51628,-90 L1033.5,127.125 L1015.5,127.125 L1104.51628,-90 L1122.51628,-90 Z M1158.51628,-90 L1069.5,127.125 L1051.5,127.125 L1140.51628,-90 L1158.51628,-90 Z M1194.51628,-90 L1105.5,127.125 L1087.5,127.125 L1176.51628,-90 L1194.51628,-90 Z"
                      id="Combined-Shape" fill="url(#linearGradient-4)" mask="url(#mask-2)"></path>
            </g>
        </g>
    </g>
</svg>
