<?xml version="1.0" encoding="UTF-8"?>
<svg width="257px" height="221px" viewBox="0 0 257 221" version="1.1" xmlns="http://www.w3.org/2000/svg"
     xmlns:xlink="http://www.w3.org/1999/xlink">
    <!-- Generator: Sketch 63.1 (92452) - https://sketch.com -->
    <title>身份证人像面</title>
    <desc>Created with Sketch.</desc>
    <g id="设计" stroke="none" stroke-width="1" fill="none" fill-rule="evenodd" opacity="0.209030878">
        <g id="1-4-1经办人身份证明信息（未填写）" transform="translate(-913.000000, -349.000000)" fill="#000000" fill-rule="nonzero">
            <g id="编组-3" transform="translate(815.000000, 300.000000)">
                <g id="身份证人像面" transform="translate(96.000000, 16.000000)">
                    <rect id="矩形" opacity="0" x="0" y="0" width="260" height="260"></rect>
                    <path d="M32.6784625,74.3066436 C31.1642355,74.3066436 30.0826446,73.2252869 30.0826446,71.7113876 C30.0826446,70.1974884 31.1642355,69.1161316 32.6784625,69.1161316 L46.5228245,69.1161316 C48.0370515,69.1161316 49.1186423,70.1974884 49.1186423,71.7113876 C49.1186423,73.2252869 48.0370515,74.3066436 46.5228245,74.3066436 L32.6784625,74.3066436 Z M67.9383217,74.3066436 C66.4240947,74.3066436 65.3425039,73.2252869 65.3425039,71.7113876 C65.3425039,70.1974884 66.4240947,69.1161316 67.9383217,69.1161316 L108.606134,69.1161316 C110.120361,69.1161316 111.201952,70.1974884 111.201952,71.7113876 C111.201952,73.2252869 110.120361,74.3066436 108.606134,74.3066436 L67.9383217,74.3066436 Z M32.6784625,96.582591 C31.1642355,96.582591 30.0826446,95.5012342 30.0826446,93.987335 C30.0826446,92.4734358 31.1642355,91.392079 32.6784625,91.392079 L46.5228245,91.392079 C48.0370515,91.392079 49.1186423,92.4734358 49.1186423,93.987335 C49.1186423,95.5012342 48.0370515,96.582591 46.5228245,96.582591 L32.6784625,96.582591 Z M67.9383217,96.582591 C66.4240947,96.582591 65.3425039,95.5012342 65.3425039,93.987335 C65.3425039,92.4734358 66.4240947,91.392079 67.9383217,91.392079 L108.606134,91.392079 C110.120361,91.392079 111.201952,92.4734358 111.201952,93.987335 C111.201952,95.5012342 110.120361,96.582591 108.606134,96.582591 L67.9383217,96.582591 Z M134.347995,180.495868 C133.482722,180.495868 132.61745,180.063325 132.184813,179.19824 C131.752177,178.333155 131.752177,177.468069 132.184813,176.602984 C138.674358,164.708061 151.437129,155.408393 167.66099,151.515509 L167.66099,146.108726 C159.440901,140.918214 153.816629,132.267361 151.437129,121.021251 C147.327084,120.156166 143.433357,116.047011 141.702812,110.423956 C140.621221,107.179886 140.404903,103.719545 141.053858,100.908017 C141.702812,97.4476762 143.649675,95.2849627 146.245493,94.4198775 C141.702812,70.6300309 155.330856,58.5188365 161.387764,54.4096812 C168.309945,49.8679833 176.530035,47.2727273 184.750125,47.2727273 C192.753896,47.2727273 199.676077,49.651712 204.435077,53.9771385 C215.034666,55.7073092 222.82212,62.8442632 226.28321,74.0903724 C228.230074,80.5785123 228.66271,88.3642803 227.364801,95.5012342 C229.095346,96.582591 230.393255,98.7453042 230.825892,101.34056 C231.474846,104.152087 231.258528,107.612429 230.176937,110.856499 C228.230074,116.479554 224.336347,120.588709 220.44262,121.453794 C217.846802,132.699903 212.22253,141.350757 204.218759,146.541269 L204.218759,151.515509 C220.009984,155.408393 232.772755,164.491789 239.2623,175.95417 C239.694936,176.819255 239.694936,177.684341 239.2623,178.549426 C238.829663,179.414511 237.964391,179.847054 237.099118,179.847054 L134.347995,180.495868 L134.347995,180.495868 Z M168.958899,156.48975 C155.97981,159.73382 145.380221,166.22196 139.106994,175.305356 L231.907482,174.656542 C225.417938,166.005689 215.034666,159.517549 202.488213,156.48975 C200.325032,159.950091 194.70076,167.087045 185.831715,167.087045 C176.530035,167.087045 171.122081,159.73382 168.958899,156.48975 L168.958899,156.48975 Z M172.636308,152.813137 C172.852626,153.029408 173.285263,153.678222 173.934217,154.759579 C175.88108,157.354835 179.774807,161.896533 185.615397,161.896533 C191.455987,161.896533 195.349714,157.571106 197.296578,154.759579 C197.945532,153.894494 198.378168,153.029408 198.594487,152.596866 L198.594487,148.703982 C194.484442,150.434153 190.158079,151.299238 185.615397,151.299238 C181.072716,151.299238 176.746353,150.434153 172.636308,148.703982 L172.636308,152.813137 Z M153.383992,115.830739 C153.816629,115.830739 154.465583,116.047011 154.89822,116.263282 C155.547174,116.695825 155.97981,117.344639 155.97981,117.993453 C157.926674,128.374477 162.685673,136.376516 169.391536,141.134485 C171.987354,142.864656 174.79949,144.378555 178.044262,145.027369 C180.423762,145.676183 183.235898,146.108726 185.831715,146.108726 C188.427533,146.108726 191.023351,145.676183 193.619169,145.027369 C196.647623,144.162284 199.676077,142.864656 202.271895,141.134485 C209.194076,136.376516 213.736757,128.374477 215.683621,117.993453 C215.899939,117.344639 216.116257,116.695825 216.765211,116.263282 C217.197848,116.047011 217.630484,115.830739 218.279438,115.830739 L218.928393,115.830739 C220.658938,115.830739 223.687392,113.019212 224.985301,108.693785 C225.850574,106.314801 226.066892,103.719545 225.634256,101.773103 C225.634256,101.556832 225.634256,101.34056 225.417938,101.124289 C224.120029,104.152088 222.605802,106.747344 220.875256,108.261243 C220.44262,108.693786 219.793665,108.910057 219.144711,108.910057 C218.712075,108.910057 218.495757,108.910057 218.279438,108.693785 C217.414166,108.261243 216.765211,107.396157 216.548893,106.531072 C215.899939,97.0151335 214.385712,93.1222495 208.76144,85.1202103 C207.030895,82.7412256 205.516668,81.4435976 204.218759,81.2273263 L203.786122,81.2273263 C201.406622,81.2273263 198.378168,83.6063111 194.917078,86.2015671 C194.051805,86.850381 193.402851,87.499195 192.537578,88.148009 C189.292806,90.5269938 185.615397,91.8246218 181.721671,91.8246215 C176.962671,91.8246215 172.636308,90.0944508 169.175218,88.796823 C167.012036,87.9317378 164.848855,87.2829238 163.550946,87.0666523 L162.685673,87.0666523 C161.387764,87.0666523 160.955128,87.7154663 158.791946,95.284963 C157.926674,98.529033 156.845083,102.205646 155.114538,107.179886 C154.681901,108.261243 153.816629,108.910057 152.735038,108.910057 C151.653447,108.910057 150.571856,108.261243 150.355538,107.396157 C149.273947,104.58463 148.192357,101.989374 147.543402,99.177847 C146.894448,99.6103897 146.461811,100.475475 146.245493,101.556831 C145.812857,103.503273 146.029175,106.098529 146.894448,108.477514 C148.408675,112.802941 151.220811,115.614468 152.951356,115.614468 L153.167674,115.614468 C152.951356,115.830739 153.167674,115.830739 153.383992,115.830739 Z M203.569804,76.2530856 L204.867713,76.2530856 C207.247213,76.6856284 209.194076,77.7669848 211.357258,80.1459696 C212.006212,80.7947836 212.438849,81.4435976 213.087803,82.3086831 C217.630484,88.796823 219.793665,93.1222498 220.875256,98.7453042 C221.307893,97.4476762 221.740529,95.933777 222.173165,94.2036063 C223.471074,87.9317375 223.038438,80.7947836 221.307893,74.9554576 C219.361029,68.2510464 214.385712,60.0327357 202.92085,58.3025652 C202.271895,58.3025652 201.839259,58.086294 201.406622,57.6537512 C197.512896,54.19341 191.455987,52.2469677 184.533806,52.2469677 C177.395307,52.2469677 169.824172,54.6259525 163.983582,58.5188365 C152.51872,66.3046044 147.976039,79.2808843 151.437129,95.0686915 C151.653447,96.3663195 151.869765,97.4476762 152.302402,98.3127615 C152.735038,96.7988622 153.167674,95.2849627 153.600311,93.987335 C155.330856,87.9317378 156.412447,84.4713963 159.008264,82.9574971 C160.089855,82.3086831 161.171446,82.0924118 162.685673,82.0924116 L163.983582,82.0924116 C166.146763,82.3086828 168.526263,83.1737683 171.122081,84.0388536 C174.583171,85.3364816 178.26058,86.6341095 181.937989,86.6341095 C184.750125,86.6341095 187.345942,85.7690243 189.725442,84.0388536 C190.590715,83.3900396 191.239669,82.9574968 191.888624,82.3086831 C195.782351,79.0646131 199.459759,76.2530859 203.569804,76.2530856 L203.569804,76.2530856 Z"
                          id="形状"></path>
                    <path d="M185.804858,134.270828 C181.908384,134.270828 178.01191,132.752682 175.197791,130.367024 C174.764849,129.933268 174.331908,129.282634 174.331908,128.632 C174.331908,127.981366 174.548378,127.330732 174.98132,126.680098 C175.414262,126.029464 176.280144,125.812587 176.929557,125.812587 C177.578969,125.812587 178.228381,126.029464 178.661323,126.463221 C180.60956,128.198244 183.207209,129.065756 186.021329,129.065756 C188.835449,129.065756 191.433098,128.198244 193.381334,126.463221 C193.814276,126.029464 194.463688,125.812587 195.113101,125.812587 C195.762513,125.812587 196.628396,126.246343 197.061337,126.680098 C197.92722,127.764488 197.92722,129.499512 196.844867,130.367024 C193.597805,132.752682 189.701331,134.270828 185.804858,134.270828 Z M75.8377115,253.553719 C44.665922,253.553719 19.338843,228.178995 19.338843,196.948565 C19.338843,165.718136 44.665922,140.343411 75.8377115,140.343411 C107.009501,140.343411 132.33658,165.718136 132.33658,196.948565 C132.33658,228.178995 107.009501,253.553719 75.8377115,253.553719 Z M75.8377115,145.765361 C47.6965127,145.765361 24.5341412,168.754427 24.5341412,197.165443 C24.5341412,225.576459 47.4800418,248.565526 75.8377115,248.565526 C104.195381,248.565526 127.141282,225.576459 127.141282,197.165443 C127.141282,168.754427 104.195381,145.765361 75.8377115,145.765361 Z M31.894147,119.089369 C30.3788518,119.089369 29.2964979,118.004979 29.2964979,116.486833 C29.2964979,114.968688 30.3788518,113.884298 31.894147,113.884298 L45.7482759,113.884298 C47.2635711,113.884298 48.345925,114.968688 48.345925,116.486833 C48.345925,118.004979 47.2635711,119.089369 45.7482759,119.089369 L31.894147,119.089369 Z M67.1788811,119.089369 C65.6635859,119.089369 64.581232,118.004979 64.581232,116.486833 C64.581232,114.968688 65.6635859,113.884298 67.1788811,113.884298 L107.875384,113.884298 C109.390679,113.884298 110.473033,114.968688 110.473033,116.486833 C110.473033,118.004979 109.390679,119.089369 107.875384,119.089369 L67.1788811,119.089369 Z"
                          id="形状"></path>
                    <path d="M69.4049587,227.768595 C67.9008266,227.768595 66.8264463,226.676308 66.8264463,225.147107 L66.8264463,197.184573 L62.0991734,201.990634 C61.6694213,202.427548 61.0247932,202.864463 60.3801654,202.864463 C59.7355375,202.864463 59.0909092,202.646006 58.661157,201.990634 L49.2066115,192.378512 C48.7768593,191.941598 48.3471074,191.286226 48.3471074,190.630854 C48.3471074,189.975483 48.5619834,189.32011 49.2066115,188.883196 L74.5619835,163.105234 C74.9917357,162.66832 75.6363638,162.231405 76.2809916,162.231405 C76.9256195,162.231405 77.5702478,162.449862 78,163.105234 L103.355372,188.883196 C103.785124,189.32011 104.214876,189.975482 104.214876,190.630854 C104.214876,191.286226 104,191.941598 103.355372,192.378512 L93.9008265,201.990634 C93.4710743,202.427548 92.8264462,202.864463 92.1818181,202.864463 C91.53719,202.864463 90.8925619,202.646006 90.4628098,201.990634 L85.7355371,197.184573 L85.7355371,225.147107 C85.7355371,226.676308 84.6611569,227.768595 83.1570247,227.768595 L69.4049587,227.768595 L69.4049587,227.768595 Z M80.3636363,222.52562 L80.3636363,190.849311 C80.3636363,189.757025 81.0082645,188.883196 81.8677685,188.446281 C82.2975207,188.227824 82.5123966,188.227824 82.9421488,188.227824 C83.5867769,188.227824 84.231405,188.446281 84.6611569,189.101653 L91.9669422,196.529201 L97.7685951,190.630854 L76.0661157,168.34821 L54.3636363,190.412397 L60.1652892,196.310744 L67.4710744,188.883196 C67.9008266,188.446281 68.5454547,188.009367 69.1900825,188.009367 C69.6198347,188.009367 69.8347106,188.009367 70.2644628,188.227824 C71.1239668,188.664738 71.7685949,189.538568 71.7685949,190.630854 L71.7685949,222.307163 L80.3636363,222.307163 L80.3636363,222.52562 Z"
                          id="形状"></path>
                    <path d="M132.272169,198.760331 L132.272169,197.895209 L132.272169,196.813807 L132.272169,193.5696 L243.310811,193.5696 C246.130151,193.5696 248.732619,192.488197 250.684471,190.541673 C252.636322,188.595149 253.720684,185.999784 253.720683,183.188138 L253.720683,49.3105384 C253.720683,43.6872465 248.949492,38.9290767 243.310811,38.9290767 L17.7635694,38.7127963 C14.9442289,38.7127963 12.3417608,39.7941987 10.3899094,41.7407227 C8.43805824,43.6872468 7.35369642,46.2826122 7.35369668,49.094258 L7.35369668,182.971857 C7.35369668,188.595149 12.1248882,193.353319 17.7635694,193.353319 L21.0166546,193.353319 L21.0166546,198.32777 L17.7635694,198.32777 C9.08867554,198.32777 2.14876033,191.406795 2.14876033,182.755577 L2.14876033,48.8779776 C2.14876033,44.7686491 3.8837392,40.875601 6.70307963,37.8476746 C9.73929258,34.8197482 13.6429948,33.3057851 17.7635694,33.3057851 L243.310811,33.5220655 C251.985705,33.5220655 258.92562,40.44304 258.92562,49.094258 L258.92562,182.971857 C258.92562,187.081186 257.190641,190.974234 254.371301,194.00216 C251.335088,197.030087 247.431385,198.54405 243.310811,198.54405 L132.272169,198.760331 Z"
                          id="路径"></path>
                </g>
            </g>
        </g>
    </g>
</svg>
