<?xml version="1.0" encoding="UTF-8"?>
<svg width="258px" height="221px" viewBox="0 0 258 221" version="1.1" xmlns="http://www.w3.org/2000/svg"
     xmlns:xlink="http://www.w3.org/1999/xlink">
    <!-- Generator: Sketch 63.1 (92452) - https://sketch.com -->
    <title>身份证国徽面</title>
    <desc>Created with Sketch.</desc>
    <g id="设计" stroke="none" stroke-width="1" fill="none" fill-rule="evenodd" opacity="0.202636719">
        <g id="1-4-1经办人身份证明信息（未填写）" transform="translate(-1396.000000, -349.000000)" fill="#000000" fill-rule="nonzero">
            <g id="编组-3备份" transform="translate(1299.000000, 300.000000)">
                <g id="身份证国徽面" transform="translate(96.000000, 16.000000)">
                    <rect id="矩形" opacity="0" x="0" y="0" width="260" height="260"></rect>
                    <path d="M154.483333,69.9833334 C152.966667,69.9833334 151.883333,68.9 151.883333,67.3833334 C151.883333,65.8666668 152.966667,64.7833334 154.483333,64.7833334 L223.816667,64.7833334 C225.333333,64.7833334 226.416667,65.8666668 226.416667,67.3833334 C226.416667,68.9 225.333333,69.9833334 223.816667,69.9833334 L154.483333,69.9833334 Z M155.133333,100.966667 C153.616667,100.966667 152.533333,99.8833332 152.533333,98.3666666 C152.533333,96.85 153.616667,95.7666666 155.133333,95.7666666 L159.466667,95.7666666 C160.983333,95.7666666 162.066667,96.85 162.066667,98.3666666 C162.066667,99.8833332 160.983333,100.966667 159.466667,100.966667 L155.133333,100.966667 Z M220.133333,100.966667 C218.616667,100.966667 217.533333,99.8833332 217.533333,98.3666666 C217.533333,96.85 218.616667,95.7666666 220.133333,95.7666666 L224.466667,95.7666666 C225.983333,95.7666666 227.066667,96.85 227.066667,98.3666666 C227.066667,99.8833332 225.983333,100.966667 224.466667,100.966667 L220.133333,100.966667 Z M176.8,100.966667 C175.283333,100.966667 174.2,99.8833332 174.2,98.3666666 C174.2,96.85 175.283333,95.7666666 176.8,95.7666666 L181.133333,95.7666666 C182.65,95.7666666 183.733333,96.85 183.733333,98.3666666 C183.733333,99.8833332 182.65,100.966667 181.133333,100.966667 L176.8,100.966667 Z M198.466667,100.966667 C196.95,100.966667 195.866667,99.8833332 195.866667,98.3666666 C195.866667,96.85 196.95,95.7666666 198.466667,95.7666666 L202.8,95.7666666 C204.316667,95.7666666 205.4,96.85 205.4,98.3666666 C205.4,99.8833332 204.316667,100.966667 202.8,100.966667 L198.466667,100.966667 Z M32.9333334,171.383333 C32.0666668,171.383333 31.2,170.95 30.7666666,170.083333 C30.3333332,169.216667 30.3333332,168.35 30.7666666,167.483333 L41.6,149.066667 L42.25,148.416667 C28.6,138.883333 20.5833334,123.5 20.5833334,106.816667 C20.5833334,78.8666666 43.3333334,56.1166666 71.2833334,56.1166666 C99.2333334,56.1166666 121.983333,78.8666666 121.983333,106.816667 C121.983333,123.283333 113.966667,138.883333 100.316667,148.416667 L100.966667,149.066667 L111.8,167.483333 C112.233333,168.35 112.233333,169.216667 111.8,170.083333 C111.366667,170.95 110.5,171.383333 109.633333,171.383333 L32.9333334,171.383333 Z M104.866667,166.183333 L97.0666666,152.966667 L92.0833334,152.966667 C85.5833334,156 78.4333334,157.516667 71.0666666,157.516667 C63.6999997,157.516667 56.55,156 49.8333334,152.966667 L45.0666666,152.966667 L37.2666666,166.183333 L104.866667,166.183333 Z M71.2833334,61.3166666 C46.15,61.3166666 25.7833334,81.6833332 25.7833334,106.816667 C25.7833334,124.15 35.9666668,140.183333 51.5666666,147.766667 C56.3333332,150.15 61.3166666,151.45 66.5166666,152.1 C68.0333332,152.316667 69.7666666,152.316667 71.2833334,152.316667 C72.8000003,152.316667 74.5333334,152.316667 76.05,152.1 C81.25,151.666667 86.2333334,150.15 91,147.766667 C106.6,140.183333 116.783333,124.15 116.783333,106.816667 C116.783333,81.6833332 96.4166668,61.3166666 71.2833334,61.3166666 Z"
                          id="形状"></path>
                    <path d="M71.2833334,140.183333 C52.8666668,140.183333 37.9166666,125.233333 37.9166666,106.816667 C37.9166666,88.3999997 52.8666666,73.45 71.2833334,73.45 C89.7000003,73.45 104.65,88.4 104.65,106.816667 C104.65,125.233333 89.7,140.183333 71.2833334,140.183333 Z M71.2833334,78.65 C55.9,78.65 43.1166666,91.2166666 43.1166666,106.816667 C43.1166666,122.416667 55.6833332,134.983333 71.2833334,134.983333 C86.8833337,134.983333 99.45,122.416667 99.45,106.816667 C99.45,91.2166663 86.6666666,78.65 71.2833334,78.65 Z"
                          id="形状"></path>
                    <path d="M66.95,97.9333334 C65.4333334,97.9333334 64.35,96.85 64.35,95.3333334 C64.35,93.8166668 65.4333334,92.7333334 66.95,92.7333334 L75.4,92.7333334 C76.9166666,92.7333334 78,93.8166668 78,95.3333334 C78,96.85 76.9166666,97.9333334 75.4,97.9333334 L66.95,97.9333334 L66.95,97.9333334 Z M58.2833334,118.733333 C57.2,118.733333 56.3333334,118.083333 55.9,117.216667 C55.4666666,115.916667 55.9,114.4 57.4166666,113.75 L70.4166666,108.55 C70.6333332,108.333333 71.0666666,108.333333 71.5,108.333333 C71.9333334,108.333333 72.15,108.333333 72.5833334,108.55 L85.5833334,113.75 C86.8833334,114.183333 87.5333334,115.916667 87.1,117.216667 C86.6666666,118.3 85.8,118.733333 84.7166666,118.733333 C84.2833332,118.733333 84.0666666,118.733333 83.6333334,118.516667 L71.7166666,113.75 L59.8,118.516667 C58.9333334,118.733333 58.7166666,118.733333 58.2833334,118.733333 L58.2833334,118.733333 Z"
                          id="形状"></path>
                    <path d="M184.383333,253.066667 C154.266667,253.066667 128.916667,228.583333 127.833333,198.683333 L17.3333334,198.466667 C8.66666684,198.466667 1.73333342,191.533333 1.73333342,182.866667 L1.73333342,48.75 C1.73333342,44.6333334 3.46666684,40.7333334 6.28333342,37.7 C9.31666658,34.6666666 13.2166666,33.15 17.3333334,33.15 L242.666667,33.3666666 C251.333333,33.3666666 258.266667,40.3 258.266667,48.9666666 L258.266667,183.083333 C258.266667,187.2 256.533333,191.1 253.716667,194.133333 C250.683333,197.166667 246.783333,198.683333 242.666667,198.683333 L240.933333,198.683333 C239.85,228.8 214.5,253.066667 184.383333,253.066667 Z M184.383333,145.383333 C156.216667,145.383333 133.033333,168.35 133.033333,196.733333 C133.033333,225.116667 156,248.083333 184.383333,248.083333 C212.55,248.083333 235.733333,225.116667 235.733333,196.733333 C235.733333,168.35 212.766667,145.383333 184.383333,145.383333 Z M242.666667,193.483333 C245.483333,193.483333 248.083333,192.4 250.033333,190.45 C251.983333,188.5 253.066667,185.9 253.066667,183.083333 L253.066667,48.9666666 C253.066667,43.3333332 248.3,38.5666666 242.666667,38.5666666 L17.3333334,38.35 C14.5166668,38.35 11.9166668,39.4333334 9.96666658,41.3833334 C8.01666658,43.3333334 6.93333342,45.9333334 6.93333342,48.75 L6.93333342,182.866667 C6.93333342,188.5 11.7,193.266667 17.3333334,193.266667 L128.05,193.266667 C129.783333,163.366667 154.483333,139.966667 184.383333,139.966667 C214.5,139.966667 239.2,163.366667 240.716667,193.266667 L242.666667,193.483333 L242.666667,193.483333 Z"
                          id="形状"></path>
                    <path d="M177.666667,227.716667 C176.15,227.716667 175.066667,226.633333 175.066667,225.116667 L175.066667,197.383333 L170.3,202.15 C169.866667,202.583333 169.216667,203.016667 168.566667,203.016667 C167.916667,203.016667 167.266667,202.8 166.833333,202.15 L157.3,192.616667 C156.866667,192.183333 156.433333,191.533333 156.433333,190.883333 C156.433333,190.233334 156.65,189.583333 157.3,189.15 L182.866667,163.583333 C183.3,163.15 183.95,162.716667 184.6,162.716667 C185.25,162.716667 185.9,162.933333 186.333333,163.583333 L211.9,189.15 C212.333333,189.583333 212.766667,190.233333 212.766667,190.883333 C212.766667,191.533333 212.55,192.183333 211.9,192.616667 L202.366667,202.15 C201.933333,202.583333 201.283333,203.016667 200.633333,203.016667 C199.983334,203.016667 199.333333,202.8 198.9,202.15 L194.133333,197.383333 L194.133333,225.116667 C194.133333,226.633333 193.05,227.716667 191.533333,227.716667 L177.666667,227.716667 L177.666667,227.716667 Z M188.716667,222.516667 L188.716667,191.1 C188.716667,190.016667 189.366667,189.15 190.233333,188.716667 C190.666667,188.5 190.883333,188.5 191.316667,188.5 C191.966667,188.5 192.616667,188.716667 193.05,189.366667 L200.416667,196.733333 L206.266667,190.883333 L184.383333,168.783333 L162.5,190.666667 L168.35,196.516667 L175.716667,189.15 C176.15,188.716667 176.8,188.283333 177.45,188.283333 C177.883333,188.283333 178.1,188.283333 178.533333,188.5 C179.4,188.933333 180.05,189.8 180.05,190.883333 L180.05,222.3 L188.716667,222.3 L188.716667,222.516667 Z"
                          id="形状"></path>
                </g>
            </g>
        </g>
    </g>
</svg>
